HIERARCHY
ROOT Hips
{
	OFFSET 0.000000 0.000000 0.000000
	CHANNELS 6 Xposition Yposition Zposition Zrotation Yrotation Xrotation 
	JOINT LHipJoint
	{
		OFFSET 0.000000 0.000000 0.000000
		CHANNELS 3 Zrotation Yrotation Xrotation
		JOINT LeftUpLeg
		{
			OFFSET 1.363060 -1.794630 0.839290
			CHANNELS 3 Zrotation Yrotation Xrotation
			JOINT LeftLeg
			{
				OFFSET 2.448110 -6.726130 0.000000
				CHANNELS 3 Zrotation Yrotation Xrotation
				JOINT LeftFoot
				{
					OFFSET 2.562200 -7.039590 0.000000
					CHANNELS 3 Zrotation Yrotation Xrotation
					JOINT LeftToeBase
					{
						OFFSET 0.157640 -0.433110 2.322550
						CHANNELS 3 Zrotation Yrotation Xrotation
						End Site
						{
							OFFSET 0.000000 0.000000 0.000000
						}
					}
				}
			}
		}
	}
	JOINT RHipJoint
	{
		OFFSET 0.000000 0.000000 0.000000
		CHANNELS 3 Zrotation Yrotation Xrotation
		JOINT RightUpLeg
		{
			OFFSET -1.305520 -1.794630 0.839290
			CHANNELS 3 Zrotation Yrotation Xrotation
			JOINT RightLeg
			{
				OFFSET -2.542530 -6.985550 0.000000
				CHANNELS 3 Zrotation Yrotation Xrotation
				JOINT RightFoot
				{
					OFFSET -2.568260 -7.056230 0.000000
					CHANNELS 3 Zrotation Yrotation Xrotation
					JOINT RightToeBase
					{
						OFFSET -0.164730 -0.452590 2.363150
						CHANNELS 3 Zrotation Yrotation Xrotation
						End Site
						{
							OFFSET 0.000000 0.000000 0.000000
						}
					}
				}
			}
		}
	}
	JOINT LowerBack
	{
		OFFSET 0.000000 0.000000 0.000000
		CHANNELS 3 Zrotation Yrotation Xrotation
		JOINT Spine
		{
			OFFSET 0.028270 2.035590 -0.193380
			CHANNELS 3 Zrotation Yrotation Xrotation
			JOINT Spine1
			{
				OFFSET 0.056720 2.048850 -0.042750
				CHANNELS 3 Zrotation Yrotation Xrotation
				JOINT Neck
				{
					OFFSET 0.000000 0.000000 0.000000
					CHANNELS 3 Zrotation Yrotation Xrotation
					JOINT Neck1
					{
						OFFSET -0.054170 1.746240 0.172020
						CHANNELS 3 Zrotation Yrotation Xrotation
						JOINT Head
						{
							OFFSET 0.104070 1.761360 -0.123970
							CHANNELS 3 Zrotation Yrotation Xrotation
							End Site
							{
								OFFSET 0.000000 0.000000 0.000000
							}
						}
					}
				}
				JOINT LeftShoulder
				{
					OFFSET 0.000000 0.000000 0.000000
					CHANNELS 3 Zrotation Yrotation Xrotation
					JOINT LeftArm
					{
						OFFSET 3.362410 1.200890 -0.311210
						CHANNELS 3 Zrotation Yrotation Xrotation
						JOINT LeftForeArm
						{
							OFFSET 4.983000 -0.000000 -0.000000
							CHANNELS 3 Zrotation Yrotation Xrotation
							JOINT LeftHand
							{
								OFFSET 3.483560 -0.000000 -0.000000
								CHANNELS 3 Zrotation Yrotation Xrotation
								JOINT LeftFingerBase
								{
									OFFSET 0.000000 0.000000 0.000000
									CHANNELS 3 Zrotation Yrotation Xrotation
									JOINT LeftHandIndex1
									{
										OFFSET 0.715260 -0.000000 -0.000000
										CHANNELS 3 Zrotation Yrotation Xrotation
										End Site
										{
											OFFSET 0.000000 0.000000 0.000000
										}
									}
								}
								JOINT LThumb
								{
									OFFSET 0.000000 0.000000 0.000000
									CHANNELS 3 Zrotation Yrotation Xrotation
									End Site
									{
										OFFSET 0.000000 0.000000 0.000000
									}
								}
							}
						}
					}
				}
				JOINT RightShoulder
				{
					OFFSET 0.000000 0.000000 0.000000
					CHANNELS 3 Zrotation Yrotation Xrotation
					JOINT RightArm
					{
						OFFSET -3.136600 1.374050 -0.404650
						CHANNELS 3 Zrotation Yrotation Xrotation
						JOINT RightForeArm
						{
							OFFSET -5.241900 -0.000000 -0.000000
							CHANNELS 3 Zrotation Yrotation Xrotation
							JOINT RightHand
							{
								OFFSET -3.444170 -0.000000 -0.000000
								CHANNELS 3 Zrotation Yrotation Xrotation
								JOINT RightFingerBase
								{
									OFFSET 0.000000 0.000000 0.000000
									CHANNELS 3 Zrotation Yrotation Xrotation
									JOINT RightHandIndex1
									{
										OFFSET -0.622530 -0.000000 -0.000000
										CHANNELS 3 Zrotation Yrotation Xrotation
										End Site
										{
											OFFSET 0.000000 0.000000 0.000000
										}
									}
								}
								JOINT RThumb
								{
									OFFSET 0.000000 0.000000 0.000000
									CHANNELS 3 Zrotation Yrotation Xrotation
									End Site
									{
										OFFSET 0.000000 0.000000 0.000000
									}
								}
							}
						}
					}
				}
			}
		}
	}
}
MOTION
Frames: 10
Frame Time: 0.008333
29.078486 17.378931 -32.690162 0.426335 -32.107408 17.709877 4.106284 3.908978 -0.526945 -13.362830 -53.000693 -5.056189 -2.803689 5.254480 17.478741 4.212685 21.132971 -52.860906 7.041300 15.366600 49.030500 -8.855756 -4.119787 1.332577 18.388952 41.804020 -18.658718 1.356601 -9.022662 24.357651 -7.030420 -19.446130 -57.352791 -7.844900 -16.004000 52.002100 0.135658 0.006247 6.422658 0.630372 -0.033563 -2.376610 -1.579073 0.228366 -6.131149 -5.849045 -1.479279 -7.326677 6.373192 -1.957272 -0.751465 2.988700 -0.838100 -1.959400 2.407942 -13.124072 2.024823 -86.368742 0.772304 32.259407 29.758174 -32.886918 -10.058905 -0.867969 -0.523982 22.657727 -1.216733 40.315095 -0.409000 -7.125000 0.000000 0.000000 -47.265400 65.000900 -25.391300 -3.576453 13.186332 3.576904 84.971250 4.307109 44.439467 -21.721309 22.992567 -4.698537 -1.383275 -0.984641 -10.223151 -24.856116 18.757800 -8.314500 7.125000 0.000000 0.000000 3.234400 -8.594200 2.719200 
29.077947 17.381521 -32.686277 0.487732 -32.172047 17.691523 4.101976 3.927898 -0.532531 -13.473634 -52.906348 -4.896404 -2.857677 5.151434 17.224137 4.107723 21.379550 -52.789433 7.054300 15.377500 49.079400 -8.890911 -4.122598 1.334125 18.345779 41.726058 -18.845142 1.347408 -9.105437 24.563399 -6.684613 -20.350540 -56.924184 -7.633300 -15.842800 51.230900 0.060732 0.051832 6.440416 0.603781 0.028981 -2.323148 -1.620177 0.255710 -5.998907 -5.762686 -1.548825 -7.374510 6.335841 -2.048554 -0.754802 2.948100 -0.885200 -1.950700 2.404397 -13.117982 2.037520 -86.243842 0.635542 32.177159 29.739424 -32.883327 -10.064347 -0.873567 -0.549244 22.685337 -2.026031 40.822173 -0.955300 -7.125000 0.000000 0.000000 -48.876200 65.129900 -26.587300 -3.574175 13.184434 3.575164 85.038105 4.420593 44.160071 -21.701044 22.959289 -4.683895 -1.398371 -0.954403 -10.041771 -24.408366 19.180377 -8.287800 7.125000 0.000000 0.000000 3.562100 -8.251000 3.020000 
29.076112 17.387241 -32.682069 0.490076 -32.246814 17.729632 4.065732 3.945060 -0.548343 -13.477031 -52.929339 -4.753998 -2.829742 5.129567 17.160188 4.436018 20.420540 -52.950834 7.303200 15.582000 50.011800 -8.909977 -4.128668 1.337490 18.345949 41.664312 -18.962012 1.369349 -9.128679 24.618026 -6.290276 -21.456410 -56.506225 -7.401300 -15.660700 50.376300 0.019550 0.128719 6.426053 0.576493 0.136162 -2.254184 -1.655394 0.303853 -5.714914 -5.757281 -1.625235 -7.914801 6.371727 -2.124324 -0.524780 2.946100 -0.919700 -1.698600 2.402159 -13.126545 2.042764 -86.023911 0.272339 32.277042 29.668459 -32.817570 -10.034664 -0.880590 -0.579248 22.660254 -3.006778 41.275075 -1.627000 -7.125000 0.000000 0.000000 -50.573500 65.166900 -27.768000 -3.573349 13.189325 3.560276 85.046367 4.702515 43.804802 -21.622847 22.892702 -4.669056 -1.399371 -0.962571 -9.928536 -24.739889 19.109123 -8.398500 7.125000 0.000000 0.000000 3.345100 -8.256100 2.835100 
29.074925 17.387565 -32.682608 0.586387 -32.292716 17.804922 4.060768 3.911042 -0.556397 -13.420137 -52.994425 -5.016265 -2.735537 5.256624 17.432629 4.824724 19.302845 -53.144457 7.465200 15.711400 50.612500 -8.894977 -4.115677 1.325451 18.123082 41.802126 -18.977448 1.423590 -9.039703 24.367734 -6.157556 -21.902175 -56.442323 -7.320900 -15.596300 50.077900 -0.114969 0.115063 6.373805 0.570042 0.110643 -2.235546 -1.588186 0.296843 -5.584265 -5.884772 -1.605800 -8.169113 6.432866 -2.085262 -0.390938 2.998200 -0.895100 -1.571400 2.397361 -13.132892 2.036088 -85.945100 0.073058 32.194830 29.505270 -32.656248 -9.928411 -0.886696 -0.575027 22.608030 -2.829351 41.122714 -1.497800 -7.125000 0.000000 0.000000 -50.151000 65.119500 -27.429500 -3.575493 13.185547 3.560001 84.940055 4.802163 43.886908 -21.647141 22.923061 -4.678595 -1.390120 -0.976736 -10.106098 -24.889392 18.912880 -8.386500 7.125000 0.000000 0.000000 3.229300 -8.428100 2.725600 
29.074170 17.373967 -32.680666 0.554104 -32.318675 17.941565 4.048681 3.886345 -0.565985 -13.251188 -53.110488 -5.166624 -2.716268 5.282222 17.480776 4.939326 19.143286 -53.335236 7.448300 15.698000 50.550100 -8.881550 -4.097517 1.322079 17.907726 42.171979 -19.121200 1.427301 -9.019237 24.256520 -6.397350 -21.469753 -56.853944 -7.432800 -15.685800 50.492900 -0.099026 0.049450 6.284107 0.588573 0.021811 -2.242924 -1.528747 0.255243 -5.556192 -6.045812 -1.538354 -8.100915 6.440951 -1.997047 -0.331105 3.041400 -0.847900 -1.565800 2.395409 -13.133361 2.027631 -85.954605 0.074785 31.958927 29.303976 -32.463678 -9.797437 -0.892373 -0.564378 22.535265 -2.391329 40.886879 -1.191500 -7.125000 0.000000 0.000000 -49.340800 65.086600 -26.849800 -3.576661 13.166611 3.567286 84.798526 4.756274 44.249219 -21.706763 22.973567 -4.682411 -1.382527 -0.974957 -10.332173 -24.550112 18.849221 -8.223500 7.125000 0.000000 0.000000 3.437200 -8.564100 2.892400 
29.074062 17.334037 -32.678076 0.489564 -32.374733 18.029230 4.023583 3.873241 -0.574744 -13.150867 -53.251716 -5.183502 -2.696695 5.305770 17.540572 5.067166 19.016052 -53.573073 7.487700 15.729200 50.695800 -8.843751 -4.074549 1.312283 17.536101 42.982433 -19.259625 1.405134 -8.984868 24.085885 -7.015921 -20.157169 -57.798021 -7.745100 -15.928600 51.639400 -0.071079 0.042771 6.282410 0.592835 0.016267 -2.234345 -1.528822 0.249926 -5.504227 -6.081363 -1.524642 -8.199935 6.391971 -1.973710 -0.221217 3.016400 -0.836400 -1.488800 2.397602 -13.135517 2.023729 -85.890169 0.006392 31.840410 29.158085 -32.328404 -9.716269 -0.902177 -0.565414 22.505677 -2.340323 41.068030 -1.155700 -7.125000 0.000000 0.000000 -49.586000 65.226100 -27.166300 -3.573226 13.161770 3.568442 84.723683 4.770769 44.379275 -21.768581 23.029264 -4.687446 -1.371608 -0.977664 -10.465846 -24.302221 18.656018 -8.051800 7.125000 0.000000 0.000000 3.573900 -8.813400 2.990100 
29.071364 17.375370 -32.676996 0.475775 -32.400160 18.098328 4.057951 3.865146 -0.573590 -13.110334 -53.250863 -5.302327 -2.736660 5.296815 17.526814 4.833553 19.862982 -53.564293 7.343200 15.614300 50.160900 -8.900751 -4.087791 1.320445 17.916268 42.036127 -19.302443 1.433314 -9.022796 24.218628 -6.342166 -21.143626 -56.540955 -7.456500 -15.704600 50.580500 -0.089847 0.018674 6.315678 0.607298 -0.019690 -2.236626 -1.465007 0.238089 -5.524727 -6.185339 -1.453017 -8.165671 6.363048 -1.879791 -0.158456 3.020900 -0.788900 -1.471200 2.397815 -13.136431 2.015694 -85.935999 0.007763 31.621139 29.059021 -32.241119 -9.664235 -0.910626 -0.561442 22.551061 -2.132932 41.258751 -1.015000 -7.125000 0.000000 0.000000 -49.698200 65.413000 -27.446000 -3.569521 13.156252 3.574337 84.643375 4.724587 44.470513 -21.846115 23.108785 -4.711377 -1.363250 -0.985105 -10.500309 -24.340952 18.472620 -8.000400 7.125000 0.000000 0.000000 3.529400 -8.994500 2.939900 
29.072335 17.385946 -32.679263 0.532879 -32.405518 18.098792 4.090919 3.843430 -0.565526 -13.128276 -53.166575 -5.478941 -2.774158 5.301558 17.536868 4.552927 20.724398 -53.451232 7.153800 15.460100 49.453800 -8.903718 -4.081719 1.310503 17.929288 41.809486 -19.294059 1.426338 -9.029053 24.236532 -6.425473 -20.762188 -56.545127 -7.562200 -15.787600 50.969800 -0.168118 -0.037802 6.369001 0.629004 -0.103277 -2.247998 -1.355059 0.207067 -5.614369 -6.332035 -1.315263 -7.895525 6.397431 -1.710291 -0.133122 3.077100 -0.703700 -1.534900 2.394267 -13.126983 2.007451 -86.050961 0.270867 31.353038 29.041110 -32.230787 -9.648538 -0.907493 -0.555957 22.679285 -2.066651 41.112477 -0.969400 -7.125000 0.000000 0.000000 -49.390800 65.331900 -27.150400 -3.570829 13.136152 3.587903 84.532112 4.560819 44.728656 -21.985235 23.259574 -4.762051 -1.350070 -1.000198 -10.624063 -24.521483 18.203787 -7.973100 7.125000 0.000000 0.000000 3.385200 -9.236600 2.802900 
29.073091 17.388104 -32.682716 0.571280 -32.417410 18.080005 4.090564 3.841879 -0.566871 -13.110078 -53.088473 -5.500442 -2.794219 5.265445 17.438140 4.501024 20.777310 -53.369678 7.131300 15.441500 49.369200 -8.899994 -4.075034 1.306027 17.867478 41.832094 -19.352852 1.402063 -9.064279 24.313079 -6.558762 -20.359903 -56.678279 -7.638700 -15.847000 51.250700 -0.247476 -0.031168 6.466692 0.614124 -0.096744 -2.231675 -1.353944 0.211678 -5.613453 -6.329346 -1.255032 -7.881212 6.454290 -1.630026 -0.017392 3.104100 -0.665000 -1.482800 2.387094 -13.119295 2.011003 -85.930963 0.406850 31.383441 28.984061 -32.178410 -9.615383 -0.908284 -0.561378 22.752555 -2.403100 41.119413 -1.196600 -7.125000 0.000000 0.000000 -49.727200 65.243900 -27.280800 -3.575475 13.130891 3.583836 84.579314 4.553817 44.631053 -22.073497 23.366790 -4.802109 -1.343587 -1.010709 -10.613660 -24.777905 18.044188 -8.015200 7.125000 0.000000 0.000000 3.203600 -9.350800 2.644800 
29.074170 17.376125 -32.686277 0.531270 -32.462153 18.108721 4.115669 3.820973 -0.567727 -13.051777 -53.025306 -5.693845 -2.757333 5.357274 17.657103 4.526112 20.672653 -53.343530 7.135900 15.445300 49.386600 -8.912925 -4.066334 1.294293 17.830797 41.942917 -19.381345 1.455772 -8.988668 24.101763 -6.336604 -21.006937 -56.467862 -7.532400 -15.764300 50.860200 -0.263729 -0.009632 6.598427 0.605078 -0.064542 -2.193189 -1.394127 0.225482 -5.533598 -6.171102 -1.283395 -8.107083 6.332249 -1.659278 0.123018 2.984700 -0.685300 -1.356700 2.391648 -13.116218 2.016071 -85.722911 0.210244 31.367543 28.789476 -31.991056 -9.505811 -0.917755 -0.580214 22.758824 -3.096062 41.305887 -1.667000 -7.125000 0.000000 0.000000 -50.706400 65.182300 -27.875400 -3.560650 13.148743 3.577946 84.635738 4.702491 44.410830 -22.116841 23.418047 -4.829290 -1.348073 -1.009128 -10.430181 -24.981383 18.113651 -8.123100 7.125000 0.000000 0.000000 3.079600 -9.237900 2.549000 
